<?xml version="1.0" encoding="UTF-8" standalone="no"?>
<!-- Uploaded to: SVG Repo, www.svgrepo.com, Generator: SVG Repo Mixer Tools -->

<svg
   width="800px"
   height="800px"
   viewBox="0 0 20 20"
   version="1.1"
   id="svg1"
   sodipodi:docname="dice-3.svg"
   inkscape:version="1.3.2 (091e20e, 2023-11-25)"
   xmlns:inkscape="http://www.inkscape.org/namespaces/inkscape"
   xmlns:sodipodi="http://sodipodi.sourceforge.net/DTD/sodipodi-0.dtd"
   xmlns="http://www.w3.org/2000/svg"
   xmlns:svg="http://www.w3.org/2000/svg">
  <sodipodi:namedview
     id="namedview1"
     pagecolor="#ffffff"
     bordercolor="#000000"
     borderopacity="0.25"
     inkscape:showpageshadow="2"
     inkscape:pageopacity="0.0"
     inkscape:pagecheckerboard="0"
     inkscape:deskcolor="#d1d1d1"
     inkscape:zoom="0.745"
     inkscape:cx="393.28859"
     inkscape:cy="431.54362"
     inkscape:window-width="1392"
     inkscape:window-height="1212"
     inkscape:window-x="54"
     inkscape:window-y="25"
     inkscape:window-maximized="0"
     inkscape:current-layer="svg1" />
  <title
     id="title1">dice [#24]</title>
  <desc
     id="desc1">Created with Sketch.</desc>
  <defs
     id="defs1" />
  <g
     id="Page-1"
     stroke="none"
     stroke-width="1"
     fill="none"
     fill-rule="evenodd">
    <g
       id="Dribbble-Light-Preview"
       transform="translate(-220.000000, -8079.000000)"
       fill="#FFFFFF">
      <g
         id="icons"
         transform="translate(56.000000, 160.000000)">
        <path
           d="m 174,7927.1047 c -1.104,0 -2,0.895 -2,2 0,1.105 0.896,2 2,2 1.104,0 2,-0.895 2,-2 0,-1.105 -0.896,-2 -2,-2 z m 8,-5.105 c 0,-0.552 -0.448,-1 -1,-1 h -14 c -0.552,0 -1,0.448 -1,1 v 14 c 0,0.553 0.448,1 1,1 h 14 c 0.552,0 1,-0.447 1,-1 z m 2,-1 v 16 c 0,1.105 -0.895,2 -2,2 h -16 c -1.104,0 -2,-0.895 -2,-2 v -16 c 0,-1.104 0.896,-2 2,-2 h 16 c 1.105,0 2,0.896 2,2 z m -14,6.105 c 1.104,0 2,-0.895 2,-2 0,-1.105 -0.896,-2 -2,-2 -1.104,0 -2,0.895 -2,2 0,1.105 0.896,2 2,2 z m 10,6 c 0,1.105 -0.896,2 -2,2 -1.104,0 -2,-0.895 -2,-2 0,-1.105 0.896,-2 2,-2 1.104,0 2,0.895 2,2 z"
           id="dice-[#24]"
           sodipodi:nodetypes="sssssssssssssssssssssssssssssssss" />
      </g>
    </g>
  </g>
</svg>
